{"title":"The Crazies TS XViD V2 - IMAGiNE","uid":5420835,"size":2156612541,"categoryP":"video","categoryS":"movies","magnet":"?xt=urn:btih:1c87f8d993e20f87ce2de9f3791da35497a5c559&amp;dn=The+Crazies+TS+XViD+V2+-+IMAGiNE&amp;tr=udp%3A%2F%2Ftracker.openbittorrent.com%3A80&amp;tr=udp%3A%2F%2Fopen.demonii.com%3A1337&amp;tr=udp%3A%2F%2Ftracker.coppersurfer.tk%3A6969&amp;tr=udp%3A%2F%2Fexodus.desync.com%3A6969","seeders":0,"leechers":0,"uploader":"IwannaFan2","files":3,"time":1268082688,"description":"Filename:\nThe Crazies TS XViD V2 - IMAGiNE\n &lt;a href=&quot;\nhttp://www.imdb.com/title/tt0455407/&quot; rel=&quot;nofollow&quot; target=&quot;_NEW&quot;&gt;\nhttp://www.imdb.com/title/tt0455407/&lt;/a&gt;\n\nDETAILS:\n\nVideo\nID                               : 0\nFormat                           : MPEG-4 Visual\nFormat profile                   : Advanced Simple@L5\nFormat settings, BVOP            : Yes\nFormat settings, QPel            : No\nFormat settings, GMC             : No warppoints\nFormat settings, Matrix          : Default (MPEG)\nMuxing mode                      : Packed bitstream\nCodec ID                         : XVID\nCodec ID/Hint                    : XviD\nDuration                         : 1h 33mn\nBit rate                         : 2 804 Kbps\nWidth                            : 720 pixels\nHeight                           : 288 pixels\nDisplay aspect ratio             : 2.500\nFrame rate                       : 23.976 fps\nResolution                       : 24 bits\nColorimetry                      : 4:2:0\nScan type                        : Progressive\nBits/(Pixel*Frame)               : 0.564\nStream size                      : 1.83 GiB (93%)\nWriting library                  : XviD 1.2.1 (UTC 2008-12-04)\n\nAudio\nID                               : 1\nFormat                           : MPEG Audio\nFormat version                   : Version 1\nFormat profile                   : Layer 3\nCodec ID                         : 55\nCodec ID/Hint                    : MP3\nDuration                         : 1h 33mn\nBit rate mode                    : Constant\nBit rate                         : 192 Kbps\nChannel(s)                       : 2 channels\nSampling rate                    : 48.0 KHz\nResolution                       : 16 bits\nStream size                      : 128 MiB (6%)\nAlignment                        : Aligned on interleaves\nInterleave, duration             : 42 ms (1.00 video frame)\nInterleave, preload duration     : 504 ms\n\n\nNOTES:\n\nIMAGiNE bringing you another release.....\nHere we go again with our V2 of The crazies......this time its our video source but mux with some\nnice audio off Rx's release....thanks guys\nThe Audio hasn't just been remuxed we decided to redo the video from the source files again....this time making it\nhigher in bitrate for better quality and also filtered the video slightly different.","torrent":{"xt":"urn:btih:1c87f8d993e20f87ce2de9f3791da35497a5c559","amp;dn":"The+Crazies+TS+XViD+V2+-+IMAGiNE","amp;tr":["udp%3A%2F%2Ftracker.openbittorrent.com%3A80","udp%3A%2F%2Fopen.demonii.com%3A1337","udp%3A%2F%2Ftracker.coppersurfer.tk%3A6969","udp%3A%2F%2Fexodus.desync.com%3A6969"],"infoHash":"1c87f8d993e20f87ce2de9f3791da35497a5c559","infoHashBuffer":{"type":"Buffer","data":[28,135,248,217,147,226,15,135,206,45,233,243,121,29,163,84,151,165,197,89]},"announce":[],"urlList":[]}}